<svg width="163" height="45" viewBox="0 0 163 45" fill="none" xmlns="http://www.w3.org/2000/svg">
    <rect x="1.5" y="11.5" width="24" height="24" rx="2.5" stroke="#714D9B" stroke-width="3"/>
    <path d="M37.416 10.8C41.328 10.8 43.284 12.732 43.284 16.596V17.496C43.284 20.088 42.432 21.78 40.728 22.572C42.696 23.34 43.68 25.14 43.68 27.972V30.024C43.68 34.008 41.676 36 37.668 36H31.44V10.8H37.416ZM35.4 24.66V32.4H37.668C39.036 32.4 39.72 31.572 39.72 29.916V27.72C39.72 26.568 39.516 25.764 39.108 25.308C38.724 24.876 38.076 24.66 37.164 24.66H35.4ZM35.4 14.4V21.06H36.948C38.532 21.06 39.324 20.172 39.324 18.396V16.992C39.324 15.264 38.652 14.4 37.308 14.4H35.4ZM54.345 36C54.105 35.28 53.985 34.248 53.985 32.904V28.944C53.985 26.808 53.121 25.74 51.393 25.74H50.025V36H46.065V10.8H52.041C55.953 10.8 57.909 12.732 57.909 16.596V18.576C57.909 21.168 57.045 22.872 55.317 23.688C57.069 24.432 57.945 26.22 57.945 29.052V32.94C57.945 34.308 58.089 35.328 58.377 36H54.345ZM50.025 14.4V22.14H51.573C53.157 22.14 53.949 21.252 53.949 19.476V16.992C53.949 15.264 53.277 14.4 51.933 14.4H50.025ZM64.5094 21.42H69.9454V25.02H64.5094V32.4H71.3494V36H60.5494V10.8H71.3494V14.4H64.5094V21.42ZM77.3313 17.748V36H73.7673V10.8H78.7353L82.8033 25.884V10.8H86.3313V36H82.2633L77.3313 17.748ZM89.1666 10.8H95.4306C99.3666 10.8 101.335 12.876 101.335 17.028V29.772C101.335 33.924 99.3666 36 95.4306 36H89.1666V10.8ZM93.1266 14.4V32.4H95.3586C96.7026 32.4 97.3746 31.584 97.3746 29.952V16.848C97.3746 15.216 96.7026 14.4 95.3586 14.4H93.1266ZM109.452 10.8H113.412V32.4H119.928V36H109.452V10.8ZM125.287 30.204C125.287 31.86 125.971 32.688 127.339 32.688C128.707 32.688 129.391 31.86 129.391 30.204V16.596C129.391 14.94 128.707 14.112 127.339 14.112C125.971 14.112 125.287 14.94 125.287 16.596V30.204ZM121.327 16.848C121.327 14.832 121.843 13.272 122.875 12.168C123.907 11.064 125.395 10.512 127.339 10.512C129.283 10.512 130.771 11.064 131.803 12.168C132.835 13.272 133.351 14.832 133.351 16.848V29.952C133.351 31.968 132.835 33.528 131.803 34.632C130.771 35.736 129.283 36.288 127.339 36.288C125.395 36.288 123.907 35.736 122.875 34.632C121.843 33.528 121.327 31.968 121.327 29.952V16.848ZM141.864 21.96H147.408V29.952C147.408 34.176 145.44 36.288 141.504 36.288C137.568 36.288 135.6 34.176 135.6 29.952V16.848C135.6 12.624 137.568 10.512 141.504 10.512C145.44 10.512 147.408 12.624 147.408 16.848V19.296H143.664V16.596C143.664 14.94 142.98 14.112 141.612 14.112C140.244 14.112 139.56 14.94 139.56 16.596V30.204C139.56 31.836 140.244 32.652 141.612 32.652C142.98 32.652 143.664 31.836 143.664 30.204V25.56H141.864V21.96ZM153.588 30.204C153.588 31.86 154.272 32.688 155.64 32.688C157.008 32.688 157.692 31.86 157.692 30.204V16.596C157.692 14.94 157.008 14.112 155.64 14.112C154.272 14.112 153.588 14.94 153.588 16.596V30.204ZM149.628 16.848C149.628 14.832 150.144 13.272 151.176 12.168C152.208 11.064 153.696 10.512 155.64 10.512C157.584 10.512 159.072 11.064 160.104 12.168C161.136 13.272 161.652 14.832 161.652 16.848V29.952C161.652 31.968 161.136 33.528 160.104 34.632C159.072 35.736 157.584 36.288 155.64 36.288C153.696 36.288 152.208 35.736 151.176 34.632C150.144 33.528 149.628 31.968 149.628 29.952V16.848Z" fill="#714D9B"/>
    <path d="M13.9277 30.7497L5.61523 21.0122L7.69336 18.5779L13.9277 25.881L27.3079 10.207L29.3861 12.6414L13.9277 30.7497Z" fill="#714D9B"/>
</svg>
